<?xml version="1.0" encoding="iso-8859-1"?>
<!-- Uploaded to: SVG Repo, www.svgrepo.com, Generator: SVG Repo Mixer Tools -->
<svg version="1.1" id="Layer_1" xmlns="http://www.w3.org/2000/svg" xmlns:xlink="http://www.w3.org/1999/xlink" 
	 viewBox="0 0 512 512" xml:space="preserve">
<path style="fill:#93C7EF;" d="M51.2,174.933c0,0.853-17.067,102.4-17.067,102.4l102.4-17.067
	C136.533,213.139,98.328,174.933,51.2,174.933z"/>
<rect y="260.267" style="fill:#C9E3F7;" width="512" height="102.4"/>
<rect x="256" y="260.267" style="fill:#93C7EF;" width="256" height="102.4"/>
<path style="fill:#3C5D76;" d="M460.8,416.942V311.467h-51.2V396.8H93.867v-85.333h-51.2v105.475
	c-5.296,6.013-8.533,13.882-8.533,22.525c0,18.852,15.281,34.133,34.133,34.133c15.899,0,29.22-10.887,33.015-25.6h300.904
	c3.796,14.713,17.114,25.6,33.015,25.6c18.852,0,34.133-15.281,34.133-34.133C469.333,430.824,466.096,422.955,460.8,416.942z"/>
<path style="fill:#1E2E3B;" d="M460.8,416.942V311.467h-51.2V396.8H256V448h146.185c3.796,14.713,17.114,25.6,33.015,25.6
	c18.852,0,34.133-15.281,34.133-34.133C469.333,430.824,466.096,422.955,460.8,416.942z"/>
<polygon style="fill:#D80027;" points="341.333,89.6 290.133,89.6 290.133,38.4 221.867,38.4 221.867,89.6 170.667,89.6 
	170.667,157.867 221.867,157.867 221.867,209.067 290.133,209.067 290.133,157.867 341.333,157.867 "/>
<polygon style="fill:#A2001D;" points="290.133,89.6 290.133,38.4 256,38.4 256,209.067 290.133,209.067 290.133,157.867 
	341.333,157.867 341.333,89.6 "/>
<polygon style="fill:#5A8BB0;" points="460.8,226.135 460.8,311.467 51.202,311.467 51.202,123.735 0.002,123.735 0.002,362.668 
	512,362.668 512,226.135 "/>
<polygon style="fill:#3C5D76;" points="460.8,226.135 460.8,311.467 256,311.467 256,362.668 512,362.668 512,226.135 "/>
</svg>